P2
# 8-bit pgm - grayscale
3 3
255
  0   0 255
  0 254   0
  0   0   0
